<svg width="157" height="157" viewBox="0 0 157 157" fill="none" xmlns="http://www.w3.org/2000/svg">
<rect width="157" height="157" rx="28" fill="#070707"/>
<path d="M78.185 26.1821C89.036 39.9575 94.8284 56.9447 94.6183 74.3758V78.5367L98.1984 80.7151C102.824 83.5153 106.274 87.8585 107.919 92.9532C106.475 91.8897 104.963 90.9168 103.394 90.0405L93.8476 84.6802L92.1322 95.4987C91.9836 96.4547 91.7844 97.4024 91.5355 98.338H64.7848C64.387 97.1142 64.0638 95.8904 63.7655 94.6176L61.6025 84.8271L52.8016 89.7223C51.3313 90.5446 49.9117 91.4518 48.5503 92.4392C50.2277 87.4034 53.6055 83.0846 58.1219 80.2011L61.5279 78.0227V74.1555C61.5894 56.7952 67.4515 39.9371 78.2099 26.1821H78.185ZM78.2099 16C77.6519 16.0014 77.1133 16.2013 76.6933 16.563L76.4696 16.7588C62.1335 32.5441 54.1728 52.9561 54.0944 74.131C48.0108 78.0168 43.5077 83.8837 41.3718 90.7065C39.236 97.5293 39.6033 104.874 42.4096 111.457C45.3659 105.029 50.3077 99.6843 56.5308 96.1841C57.1549 98.8456 57.9861 101.456 59.0169 103.992C59.1477 104.479 59.4375 104.911 59.8417 105.221C60.246 105.53 60.7423 105.701 61.2545 105.705H95.762C96.4581 105.705 97.1542 105.044 97.5023 104.016C98.5084 101.605 99.2097 99.0817 99.5906 96.5023C105.826 99.9879 110.771 105.337 113.712 111.775C116.687 105.225 117.148 97.8335 115.008 90.9737C112.869 84.1139 108.274 78.2512 102.077 74.4737C102.323 53.1738 94.4041 32.5655 79.9004 16.7588C79.6845 16.521 79.4201 16.3306 79.1246 16.1999C78.8291 16.0692 78.509 16.0011 78.185 16H78.2099Z" fill="#4EA8DE"/>
<path d="M78.1854 72.0994C76.2759 72.0994 74.409 71.5428 72.8203 70.4998C71.2316 69.4568 69.992 67.9741 69.2579 66.2386C68.5238 64.5031 68.3279 62.5924 68.6951 60.7475C69.0623 58.9026 69.976 57.206 71.321 55.8716C72.6661 54.5371 74.3823 53.6246 76.2534 53.2489C78.1244 52.8733 80.0666 53.0514 81.835 53.7608C83.6034 54.4702 85.1189 55.6791 86.1905 57.2352C87.262 58.7913 87.8417 60.6248 87.8565 62.5048V62.5048C87.8862 63.7231 87.6718 64.9352 87.2256 66.0719C86.7793 67.2086 86.11 68.2476 85.2557 69.1295C84.4015 70.0114 83.3791 70.719 82.247 71.2118C81.1149 71.7046 79.8953 71.9729 78.6578 72.0015C78.5013 72.0262 78.3419 72.0262 78.1854 72.0015V72.0994Z" fill="#4EA8DE"/>
<path d="M91.6346 111.8C91.0126 111.78 90.3928 111.883 89.8117 112.103C89.2305 112.322 88.6998 112.654 88.2505 113.078C87.8013 113.502 87.4426 114.01 87.1955 114.572C86.9484 115.135 86.8178 115.74 86.8115 116.353V130.794C86.8115 132.053 87.3197 133.261 88.2242 134.151C89.1287 135.042 90.3554 135.542 91.6346 135.542C92.9138 135.542 94.1406 135.042 95.0451 134.151C95.9496 133.261 96.4577 132.053 96.4577 130.794V116.548C96.4776 115.938 96.3738 115.33 96.1525 114.759C95.9312 114.189 95.5968 113.667 95.1687 113.225C94.7406 112.783 94.2274 112.43 93.6591 112.185C93.0907 111.94 92.4786 111.809 91.8584 111.8H91.6346Z" fill="#5E60CE"/>
<path d="M64.7848 111.8C64.1521 111.767 63.5192 111.86 62.9237 112.072C62.3282 112.285 61.7823 112.614 61.3184 113.038C60.8545 113.463 60.4821 113.975 60.2234 114.545C59.9647 115.114 59.825 115.729 59.8125 116.352V130.793C59.8125 132.053 60.3206 133.26 61.2252 134.151C62.1297 135.041 63.3564 135.542 64.6356 135.542C65.9148 135.542 67.1415 135.041 68.046 134.151C68.9505 133.26 69.4587 132.053 69.4587 130.793V116.548C69.4786 115.938 69.3748 115.33 69.1535 114.759C68.9322 114.189 68.5977 113.667 68.1697 113.225C67.7416 112.783 67.2284 112.43 66.6601 112.185C66.0917 111.94 65.4796 111.809 64.8593 111.8H64.7848Z" fill="#5E60CE"/>
<path d="M77.8368 111.8C77.2164 111.787 76.5995 111.894 76.0214 112.116C75.4432 112.338 74.9151 112.67 74.4672 113.092C74.0193 113.515 73.6604 114.021 73.411 114.58C73.1616 115.139 73.0266 115.742 73.0137 116.352V136.252C73.0137 137.511 73.5218 138.719 74.4263 139.609C75.3308 140.5 76.5576 141 77.8368 141C79.1159 141 80.3427 140.5 81.2472 139.609C82.1517 138.719 82.6599 137.511 82.6599 136.252V116.671C82.6797 116.06 82.576 115.452 82.3547 114.882C82.1334 114.311 81.7989 113.79 81.3708 113.348C80.9427 112.906 80.4296 112.552 79.8612 112.307C79.2929 112.063 78.6808 111.932 78.0605 111.922L77.8368 111.8Z" fill="#5E60CE"/>
</svg>
